# AST/ASF file generated using VICON BodyLanguage
# -----------------------------------------------
:version 1.10
:name VICON
:units
  mass 1.0
  length 0.45
  angle deg
:documentation
   .ast/.asf automatically generated from VICON data using
   VICON BodyBuilder and BodyLanguage model FoxedUp or BRILLIANT.MOD
:root
   order TX TY TZ RX RY RZ
   axis XYZ
   position 0 0 0  
   orientation 0 -0 0 
:bonedata
  begin
     id 1 
     name lhipjoint
     direction 0.432694 -0.693742 0.575759 
     length 2.19277 
     axis 0 -0 0  XYZ
  end
  begin
     id 2 
     name lfemur
     direction 0.34202 -0.939693 0  
     length 6.69022  
     axis 0 -0 20  XYZ
    dof rx ry rz
    limits (-160.0 20.0)
           (-70.0 70.0)
           (-60.0 70.0)
  end
  begin
     id 3 
     name ltibia
     direction 0.34202 -0.939693 0   
     length 6.50337   
     axis 0 -0 20   XYZ
    dof rx
    limits (-10.0 170.0)
  end
  begin
     id 4 
     name lfoot
     direction 0.158999 -0.435969 0.885805   
     length 2.70564   
     axis -90 -1.13533e-015 20   XYZ
    dof rx rz
    limits (-45.0 90.0)
           (-70.0 20.0)
  end
  begin
     id 5 
     name ltoes
     direction -0.00592919 0.00964381 0.999936   
     length 1.29929   
     axis -90 -1.13533e-015 20   XYZ
    dof rx
    limits (-90.0 20.0)
  end
  begin
     id 6 
     name rhipjoint
     direction -0.414359 -0.700339 0.581234   
     length 2.17212  
     axis 0 -0 0  XYZ 
  end
  begin
     id 7 
     name rfemur
     direction -0.34202 -0.939693 0   
     length 7.17659   
     axis 0 -0 -20   XYZ
    dof rx ry rz
    limits (-160.0 20.0)
           (-70.0 70.0)
           (-70.0 60.0)
  end
  begin
     id 8 
     name rtibia
     direction -0.34202 -0.939693 0   
     length 6.36669   
     axis 0 -0 -20   XYZ
    dof rx
    limits (-10.0 170.0)
 end
 begin
     id 9 
     name rfoot
     direction -0.137064 -0.37658 0.916188   
     length 2.22351  
     axis -90 1.13533e-015 -20   XYZ
    dof rx rz
    limits (-45.0 90.0)
           (-20.0 70.0)
  end
  begin
     id 10 
     name rtoes
     direction -0.000784077 -0.00289101 0.999996   
     length 1.09522   
     axis -90 1.13533e-015 -20   XYZ
    dof rx
    limits (-90.0 20.0)
  end
  begin
     id 11 
     name lowerback
     direction -0.0176242 0.984912 -0.172157   
     length 1.65301   
     axis 0 -0 0   XYZ
    dof rx ry rz
    limits (-20.0 45.0)
           (-30.0 30.0)
           (-30.0 30.0)
  end
  begin
     id 12 
     name upperback
     direction -0.00218128 0.998776 -0.0494072   
     length 1.67776   
     axis 0 -0 0   XYZ
    dof rx ry rz
    limits (-20.0 45.0)
           (-30.0 30.0)
           (-30.0 30.0)
  end
  begin
     id 13 
     name thorax
     direction 0.00544186 0.999658 0.0255711   
     length 1.72293   
     axis 0 -0 0   XYZ
    dof rx ry rz
    limits (-20.0 45.0)
           (-30.0 30.0)
           (-30.0 30.0)
  end
  begin
     id 14 
     name lowerneck
     direction -0.105325 0.983841 0.144785   
     length 2.14226   
     axis 0 -0 0   XYZ
    dof rx ry rz
    limits (-20.0 45.0)
           (-30.0 30.0)
           (-30.0 30.0)
  end
  begin
     id 15 
     name upperneck
     direction 0.0547957 0.988053 -0.144041   
     length 2.17508   
     axis 0 -0 0   XYZ
    dof rx ry rz
    limits (-20.0 45.0)
           (-30.0 30.0)
           (-30.0 30.0)
  end
  begin
     id 16
     name head
     direction 0.0247488 0.997534 -0.0656813  
     length 2.20048  
     axis 0 -0 0   XYZ
    dof rx ry rz
    limits (-20.0 45.0)
           (-30.0 30.0)
           (-30.0 30.0)
  end
  begin
     id 17 
     name lclavicle
     direction 0.820559 0.567247 -0.0701026  
     length 4.09615  
     axis 0 -0 0   XYZ
    dof ry rz
    limits (-20.0 10.0)
           (0.0 20.0)
  end
  begin
     id 18 
     name lhumerus
     direction 0.999977 -0.0067566 -9.96392e-005   
     length 4.59333   
     axis -180 -30 -90   XYZ
    dof rx ry rz
    limits (-60.0 90.0)
           (-90.0 90.0)
           (-90.0 90.0)
  end
  begin
     id 19
     name lradius
     direction 1 -4.48982e-011 -2.53425e-027   
     length 2.81151   
     axis -180 -30 -90   XYZ
    dof rx
    limits (-10.0 170.0)
  end
  begin
     id 20
     name lwrist
     direction 1 -4.48939e-011 -7.39254e-028   
     length 1.40576   
     axis 2.56395e-016 90 90   XYZ
    dof ry
    limits (-180.0 0.0)
 end
  begin
     id 21 
     name lhand
     direction 1 -4.48939e-011 -1.47851e-027   
     length 0.895651   
     axis 9.43423e-016 90 90   XYZ
    dof rx rz
    limits (-90.0 90.0)
           (-45.0 45.0)
  end
  begin
     id 22 
     name lfingers
     direction 1 -4.48978e-011 -2.95702e-027   
     length 0.722097   
     axis 1.88685e-015 90 90   XYZ
    dof rx
    limits (0.0 90.0)
  end
  begin
     id 23
     name lthumb
     direction 0.707107 -6.34931e-011 0.707107   
     length 1.03679   
     axis -90 45 -9.86935e-015   XYZ
    dof rx rz
    limits (-45.0 45.0)
           (-45.0 45.0)
  end
  begin
     id 24 
     name rclavicle
     direction -0.831414 0.553102 -0.0531864   
     length 4.24872  
     axis 0 -0 0   XYZ 
    dof ry rz
    limits (-10.0 20.0)
           (-20.0 0.0)
  end
  begin
     id 25 
     name rhumerus
     direction -0.999916 -0.000939607 0.0129331  
     length 4.74834   
     axis -180 30 90   XYZ
    dof rx ry rz
    limits (-90.0 60.0)
           (-90.0 90.0)
           (-90.0 90.0)
  end
  begin
     id 26 
     name rradius
     direction -1 -4.48956e-011 -1.31752e-027   
     length 2.79907   
     axis -180 30 90   XYZ
    dof rx
    limits (-10.0 170.0)
  end
  begin
     id 27 
     name rwrist
     direction -1 -4.4897e-011 -7.39254e-028   
     length 1.39954   
     axis 2.56395e-016 -90 -90   XYZ
    dof ry
    limits (-180.0 0.0)
  end
  begin
     id 28
     name rhand
     direction -0.999997 -0.00250697 0.000800838   
     length 0.953304   
     axis 9.43423e-016 -90 -90   XYZ
    dof rx rz
    limits (-90.0 90.0)
           (-45.0 45.0)
  end
  begin
     id 29
     name rfingers
     direction -1 -4.48954e-011 -2.95702e-027   
     length 0.763342   
     axis 1.88685e-015 -90 -90   XYZ
    dof rx
    limits (0.0 90.0)
  end
  begin
     id 30
     name rthumb
     direction -0.709701 -0.00217037 0.7045   
     length 1.10115   
     axis -90 -45 9.86935e-015   XYZ
    dof rx rz
    limits (-45.0 45.0)
           (-45.0 45.0)
  end
:hierarchy
  begin
    root lhipjoint rhipjoint lowerback
    lhipjoint lfemur
    lfemur ltibia
    ltibia lfoot
    lfoot ltoes
    rhipjoint rfemur
    rfemur rtibia
    rtibia rfoot
    rfoot rtoes
    lowerback upperback
    upperback thorax
    thorax lowerneck lclavicle rclavicle
    lowerneck upperneck
    upperneck head
    lclavicle lhumerus
    lhumerus lradius
    lradius lwrist
    lwrist lhand lthumb
    lhand lfingers
    rclavicle rhumerus
    rhumerus rradius
    rradius rwrist
    rwrist rhand rthumb
    rhand rfingers
  end

#!OML:ASF G:\ViconDB\ViconDB\414\test\team2\shane.ASF
:FULLY-SPECIFIED
:DEGREES
134
root 3.93566 15.081 -18.2292 -2.79835 8.78865 -6.87181
lowerback 15.7691 -0.104591 3.81982
upperback 5.97446 0.540651 2.25659
thorax -2.47852 0.296663 0.114514
lowerneck -19.6368 -2.35264 -6.41859
upperneck 7.57225 -2.39343 6.99057
head 5.61785 -0.816251 3.02351
rclavicle 7.35503e-015 2.23633e-015
rhumerus -35.1722 -19.8991 -76.4493
rradius 23.9212
rwrist 55.5665
rhand -25.1723 -9.5945
rfingers 7.12502
rthumb 1.34519 -39.57
lclavicle 7.35503e-015 2.23633e-015
lhumerus -27.2783 -23.0489 90.7569
lradius 19.9574
lwrist -39.8031
lhand -31.0825 4.79107
lfingers 7.12502
lthumb -4.36279 34.7261
rfemur -18.1303 -19.6141 13.9773
rtibia 72.0929
rfoot -28.262 -2.41382
rtoes -23.7284
lfemur -19.674 14.8693 0.640541
ltibia 67.93
lfoot -40.2092 -11.4634
ltoes -20.0802
135
root 3.9347 15.1455 -18.1646 -2.6455 8.39721 -6.73141
lowerback 15.4566 0.0905935 3.86792
upperback 5.91614 0.779196 2.05697
thorax -2.36452 0.417826 -0.161971
lowerneck -19.4972 -2.18978 -6.01679
upperneck 7.42197 -2.26104 6.85816
head 5.53273 -0.752368 2.92864
rclavicle 1.91082e-014 -1.15295e-014
rhumerus -39.6183 -17.5726 -76.119
rradius 23.4744
rwrist 54.8188
rhand -22.9951 -9.09477
rfingers 7.12502
rthumb 3.44781 -39.0466
lclavicle 1.91082e-014 -1.15295e-014
lhumerus -31.5297 -22.1939 92.3413
lradius 19.2237
lwrist -37.5273
lhand -29.7484 5.24122
lfingers 7.12502
lthumb -3.07443 35.1988
rfemur -17.6591 -19.7624 14.1342
rtibia 71.1483
rfoot -28.1172 -3.1161
rtoes -22.918
lfemur -18.7226 14.983 0.531139
ltibia 66.6082
lfoot -40.1248 -11.1946
ltoes -19.7671
136
root 3.92576 15.2246 -18.0997 -2.58185 8.23182 -6.79057
lowerback 14.9525 0.174919 3.9503
upperback 6.02001 0.868279 2.04261
thorax -1.98219 0.470012 -0.23366
lowerneck -19.5027 -2.01751 -5.90324
upperneck 7.21904 -2.04323 6.81344
head 5.45306 -0.646725 2.91735
rclavicle 1.11816e-015 -6.55989e-015
rhumerus -43.2603 -14.0353 -77.0142
rradius 23.091
rwrist 53.5689
rhand -21.3671 -9.03598
rfingers 7.12502
rthumb 5.01987 -38.9565
lclavicle 1.11816e-015 -6.55989e-015
lhumerus -35.4704 -20.6016 93.4646
lradius 18.8744
lwrist -36.4438
lhand -28.9709 5.47796
lfingers 7.12502
lthumb -2.32364 35.4451
rfemur -16.9868 -19.9259 14.5705
rtibia 69.9613
rfoot -27.796 -3.93728
rtoes -21.7653
lfemur -17.7325 14.9736 0.660578
ltibia 65.0462
lfoot -39.7951 -11.0226
ltoes -19.4235
137
root 3.91593 15.3222 -18.0377 -2.74808 8.08832 -6.67027
lowerback 14.9523 0.181362 3.80356
upperback 6.00525 0.855611 2.01346
thorax -2.00055 0.461591 -0.179727
lowerneck -19.3274 -1.76239 -5.74998
upperneck 7.20132 -1.71918 6.58061
head 5.39404 -0.505148 2.85036
rclavicle -1.07344e-014 4.17448e-015
rhumerus -47.0318 -10.767 -78.0331
rradius 22.6964
rwrist 55.0581
rhand -20.806 -8.7783
rfingers 7.12502
rthumb 5.56164 -38.6853
lclavicle -1.07344e-014 4.17448e-015
lhumerus -39.8298 -19.5059 94.9211
lradius 18.7688
lwrist -34.5332
lhand -29.0753 5.48871
lfingers 7.12502
lthumb -2.4244 35.4547
rfemur -15.9033 -19.9445 14.6621
rtibia 68.5314
rfoot -27.4065 -4.4984
rtoes -21.3302
lfemur -16.3632 14.5527 0.529944
ltibia 63.2326
lfoot -39.2213 -10.6242
ltoes -19.1475
138
root 3.91567 15.4264 -17.975 -2.9433 7.91346 -6.6503
lowerback 14.726 0.158404 3.96348
upperback 6.05955 0.828906 1.91157
thorax -1.81882 0.454766 -0.369639
lowerneck -19.0307 -1.50532 -5.55214
upperneck 7.05521 -1.43155 6.57649
head 5.2816 -0.364616 2.84421
rclavicle -1.09332e-015 -1.00386e-014
rhumerus -50.4327 -7.25064 -80.3556
rradius 22.7035
rwrist 53.4009
rhand -19.1686 -7.72853
rfingers 7.12502
rthumb 7.14242 -37.588
lclavicle -1.09332e-015 -1.00386e-014
lhumerus -44.2105 -19.1204 96.6619
lradius 18.9372
lwrist -31.8864
lhand -29.4395 5.93349
lfingers 7.12502
lthumb -2.77615 35.8952
rfemur -14.7448 -19.7991 14.8218
rtibia 66.8807
rfoot -26.8168 -5.12243
rtoes -20.88
lfemur -14.9598 14.3658 0.50645
ltibia 61.3281
lfoot -38.5175 -10.3903
ltoes -18.7343
139
root 3.91222 15.5439 -17.9117 -3.17759 7.6876 -6.50408
lowerback 14.6839 0.102325 3.83387
upperback 6.01896 0.735325 1.88908
thorax -1.84439 0.405616 -0.305449
lowerneck -18.8516 -1.24333 -5.60559
upperneck 7.35234 -1.09038 6.58837
head 5.32588 -0.201074 2.89212
rclavicle -3.97569e-016 3.03147e-014
rhumerus -54.0994 -3.7222 -82.7835
rradius 22.8204
rwrist 54.5662
rhand -19.4851 -7.61428
rfingers 7.12502
rthumb 6.83687 -37.4839
lclavicle -3.97569e-016 3.03147e-014
lhumerus -48.2425 -17.5454 97.9102
lradius 18.9701
lwrist -29.7094
lhand -29.8617 5.88661
lfingers 7.12502
lthumb -3.18386 35.8426
rfemur -13.4529 -19.3636 14.7732
rtibia 65.0153
rfoot -26.0798 -5.25936
rtoes -20.1903
lfemur -13.4283 13.9459 0.289375
ltibia 59.3132
lfoot -37.6504 -9.92735
ltoes -18.4116
140
root 3.90313 15.6689 -17.8509 -3.22312 7.64689 -6.37971
lowerback 14.4116 -0.00818013 3.77392
upperback 5.90083 0.567279 1.77737
thorax -1.82861 0.321275 -0.3611
lowerneck -18.5493 -1.00564 -5.44572
upperneck 7.66321 -0.845766 6.64724
head 5.36051 -0.076437 2.9103
rclavicle -3.97569e-016 3.03147e-014
rhumerus -54.0994 -3.7222 -82.7835
rradius 22.8204
rwrist 54.5662
rhand -19.4851 -7.61428
rfingers 7.12502
rthumb 6.83687 -37.4839
lclavicle -4.07509e-015 2.38542e-015
lhumerus -52.3815 -16.5249 99.2548
lradius 19.2067
lwrist -28.1356
lhand -30.4676 6.53702
lfingers 7.12502
lthumb -3.76898 36.4834
rfemur -12.3553 -18.9186 14.8604
rtibia 63.0095
rfoot -25.2298 -5.4488
rtoes -19.3038
lfemur -12.2473 13.3322 0.0132552
ltibia 57.3143
lfoot -36.5713 -9.40582
ltoes -18.3016
141
root 3.89207 15.798 -17.7896 -3.42508 7.5726 -6.46723
lowerback 14.2137 -0.124982 3.94703
upperback 5.80574 0.425292 1.67723
thorax -1.82453 0.252766 -0.540578
lowerneck -18.3061 -0.799407 -5.27381
upperneck 8.17217 -0.65863 6.76382
head 5.47101 0.0270597 2.94157
rclavicle -3.97569e-016 3.03147e-014
rhumerus -54.0994 -3.7222 -82.7835
rradius 22.8204
rwrist 54.5662
rhand -19.4851 -7.61428
rfingers 7.12502
rthumb 6.83687 -37.4839
lclavicle -1.90336e-014 -2.20651e-014
lhumerus -56.099 -15.213 100.152
lradius 19.3847
lwrist -26.552
lhand -30.9729 6.77107
lfingers 7.12502
lthumb -4.25698 36.7083
rfemur -11.0104 -18.2719 15.1477
rtibia 60.8061
rfoot -24.2386 -5.70881
rtoes -19.2184
lfemur -10.9564 12.8685 0.0273513
ltibia 55.3129
lfoot -35.3714 -9.0629
ltoes -18.3037
142
root 3.87621 15.9306 -17.7357 -3.42559 7.63776 -6.48834
lowerback 13.7912 -0.278572 3.87828
upperback 5.74511 0.193932 1.71213
thorax -1.67141 0.138008 -0.429844
lowerneck -18.4117 -0.6254 -5.3603
upperneck 8.83268 -0.449622 6.92413
head 5.68458 0.142552 3.03599
rclavicle -3.97569e-016 3.03147e-014
rhumerus -54.0994 -3.7222 -82.7835
rradius 22.8204
rwrist 54.5662
rhand -19.4851 -7.61428
rfingers 7.12502
rthumb 6.83687 -37.4839
lclavicle -2.13694e-014 -1.80894e-014
lhumerus -59.1542 -13.5624 100.762
lradius 19.5709
lwrist -24.719
lhand -30.3353 5.8509
lfingers 7.12502
lthumb -3.64126 35.7995
rfemur -9.87679 -17.6689 15.4298
rtibia 58.5207
rfoot -23.1632 -5.89868
rtoes -18.7903
lfemur -9.9987 12.2854 -0.118101
ltibia 53.4151
lfoot -33.9854 -8.73371
ltoes -18.2209
143
root 3.87163 16.0635 -17.6733 -3.61778 7.49474 -6.72555
lowerback 13.3437 -0.361475 4.09855
upperback 5.74759 0.089045 1.81682
thorax -1.43092 0.0912059 -0.429332
lowerneck -18.4624 -0.504366 -5.4224
upperneck 9.53683 -0.307012 6.96945
head 5.90708 0.216393 3.08421
rclavicle 1.42131e-014 1.21259e-014
rhumerus -67.7551 5.98239 -96.0304
rradius 26.2323
rwrist 45.165
rhand -16.9409 -6.31734
rfingers 7.12502
rthumb 9.29235 -36.0926
lclavicle -2.13694e-014 -1.80894e-014
lhumerus -59.1542 -13.5624 100.762
lradius 19.5709
lwrist -24.719
lhand -30.3353 5.8509
lfingers 7.12502
lthumb -3.64126 35.7995
rfemur -8.48209 -16.7253 15.9257
rtibia 56.1358
rfoot -22.0629 -6.1374
rtoes -18.2453
lfemur -8.80702 11.8063 0.0472791
ltibia 51.6775
lfoot -32.584 -8.42827
ltoes -18.5314
144
root 3.85726 16.199 -17.6199 -3.55637 7.50237 -6.86584
lowerback 12.6918 -0.396082 4.25367
upperback 5.70582 0.0234942 1.78096
thorax -1.12548 0.0655842 -0.545651
lowerneck -18.5511 -0.439012 -5.28599
upperneck 10.1629 -0.286046 7.0297
head 6.11989 0.240733 3.09283
rclavicle -1.93815e-015 -2.06736e-014
rhumerus -70.6957 6.46699 -98.2625
rradius 27.512
rwrist 42.4701
rhand -16.0483 -5.53185
rfingers 7.12502
rthumb 10.1536 -35.2668
lclavicle -2.13694e-014 -1.80894e-014
lhumerus -59.1542 -13.5624 100.762
lradius 19.5709
lwrist -24.719
lhand -30.3353 5.8509
lfingers 7.12502
lthumb -3.64126 35.7995
rfemur -7.40496 -15.976 16.4275
rtibia 53.7656
rfoot -20.8758 -6.36423
rtoes -17.5422
lfemur -8.14652 11.5126 0.103514
ltibia 50.1579
lfoot -30.8952 -8.43773
ltoes -18.5269
145
root 3.84513 16.3205 -17.571 -3.69849 7.53564 -6.8122
lowerback 12.2097 -0.426571 4.29677
upperback 5.78601 -0.0455707 1.69888
thorax -0.783999 0.0395994 -0.647067
lowerneck -18.8602 -0.403026 -5.2201
upperneck 10.836 -0.281513 7.09321
head 6.38596 0.25902 3.11579
rclavicle -9.34288e-015 -2.38542e-015
rhumerus -73.2952 6.5555 -99.9273
rradius 28.9234
rwrist 39.939
rhand -15.0613 -5.29002
rfingers 7.12502
rthumb 11.1056 -34.9762
lclavicle -2.13694e-014 -1.80894e-014
lhumerus -59.1542 -13.5624 100.762
lradius 19.5709
lwrist -24.719
lhand -30.3353 5.8509
lfingers 7.12502
lthumb -3.64126 35.7995
rfemur -6.06805 -15.317 16.5579
rtibia 51.3938
rfoot -19.6707 -6.48572
rtoes -16.7338
lfemur -7.35561 11.2735 -0.0491257
ltibia 48.9186
lfoot -29.2819 -8.34197
ltoes -18.6602
